<svg width="17" height="28" viewBox="0 0 17 28" fill="none" xmlns="http://www.w3.org/2000/svg">
<path d="M1.90735e-06 1.40084L1.90735e-06 26.6016C0.000650406 26.8567 0.0577164 27.1068 0.165058 27.3249C0.272398 27.5431 0.425949 27.7209 0.60918 27.8395C0.792414 27.958 0.99839 28.0126 1.20494 27.9975C1.41149 27.9824 1.61078 27.8982 1.78138 27.7538L16.541 15.1534C17.153 14.6312 17.153 13.374 16.541 12.8504L1.78138 0.25001C1.61114 0.104161 1.41174 0.0186316 1.20485 0.00271457C0.997957 -0.0132024 0.791485 0.0411018 0.607864 0.159727C0.424244 0.278353 0.270496 0.456762 0.16333 0.675572C0.0561638 0.894382 -0.000324249 1.14522 1.90735e-06 1.40084Z" fill="white"/>
</svg>
