<svg width="31" height="33" viewBox="0 0 31 33" fill="none" xmlns="http://www.w3.org/2000/svg">
<path d="M28.779 31L22.3712 24.003M22.3712 24.003C23.4673 22.8062 24.3367 21.3853 24.9299 19.8215C25.5231 18.2577 25.8284 16.5817 25.8284 14.8891C25.8284 13.1965 25.5231 11.5204 24.9299 9.95664C24.3367 8.39286 23.4673 6.97198 22.3712 5.77512C21.2751 4.57826 19.9739 3.62886 18.5418 2.98112C17.1097 2.33339 15.5748 2 14.0247 2C12.4747 2 10.9398 2.33339 9.50768 2.98112C8.07559 3.62886 6.77436 4.57826 5.67829 5.77512C3.46467 8.19229 2.22107 11.4707 2.22107 14.8891C2.22107 18.3075 3.46467 21.5859 5.67829 24.003C7.89191 26.4202 10.8942 27.7781 14.0247 27.7781C17.1553 27.7781 20.1576 26.4202 22.3712 24.003Z" stroke="white" stroke-width="3" stroke-linecap="round" stroke-linejoin="round"/>
</svg>
